{"title":"Ken Park (2002) Uncut dvd rip 92 Minutes","uid":8604498,"size":1073449946,"categoryP":"video","categoryS":"movies","magnet":"?xt=urn:btih:928af9e031f6818ab4a7782e1ef9b99377f81960&amp;dn=+Ken+Park+%282002%29+Uncut+dvd+rip+92+Minutes&amp;tr=udp%3A%2F%2Ftracker.openbittorrent.com%3A80&amp;tr=udp%3A%2F%2Fopen.demonii.com%3A1337&amp;tr=udp%3A%2F%2Ftracker.coppersurfer.tk%3A6969&amp;tr=udp%3A%2F%2Fexodus.desync.com%3A6969","seeders":2,"leechers":1,"uploader":null,"files":6,"time":1371977052,"description":"Format                                   : MPEG-4\nFormat profile                           : Base Media / Version 2\nCodec ID                                 : mp42\nFile size                                : 693 MiB\nDuration                                 : 1h 32mn\nOverall bit rate mode                    : Variable\nOverall bit rate                         : 1 049 Kbps\nEncoded date                             : UTC 2013-06-13 07:07:00\nTagged date                              : UTC 2013-06-13 07:55:54\nWriting application                      : HandBrake 0.9.9 2013051800\n\nVideo\nID                                       : 1\nFormat                                   : AVC\nFormat/Info                              : Advanced Video Codec\nFormat profile                           : &lt;a class=&quot;__cf_email__&quot; href=&quot;/cdn-cgi/l/email-protection&quot; data-cfemail=&quot;efa28e8681afa3dbc1df&quot;&gt;[email&amp;#160;protected]&lt;/a&gt;&lt;script cf-hash='f9e31' type=&quot;text/javascript&quot;&gt;\n/* &lt;![CDATA[ */!function(){try{var t=&quot;currentScript&quot;in document?document.currentScript:function(){for(var t=document.getElementsByTagName(&quot;script&quot;),e=t.length;e--;)if(t[e].getAttribute(&quot;cf-hash&quot;))return t[e]}();if(t&amp;&amp;t.previousSibling){var e,r,n,i,c=t.previousSibling,a=c.getAttribute(&quot;data-cfemail&quot;);if(a){for(e=&quot;&quot;,r=parseInt(a.substr(0,2),16),n=2;a.length-n;n+=2)i=parseInt(a.substr(n,2),16)^r,e+=String.fromCharCode(i);e=document.createTextNode(e),c.parentNode.replaceChild(e,c)}}}catch(u){}}();/* ]]&gt; */&lt;/script&gt;\nFormat settings, CABAC                   : Yes\nFormat settings, ReFrames                : 4 frames\nCodec ID                                 : avc1\nCodec ID/Info                            : Advanced Video Coding\nDuration                                 : 1h 32mn\nBit rate mode                            : Variable\nBit rate                                 : 885 Kbps\nWidth                                    : 720 pixels\nHeight                                   : 580 pixels\nDisplay aspect ratio                     : 16:9\nFrame rate mode                          : Constant\nFrame rate                               : 25.000 fps\nColor space                              : YUV\nChroma subsampling                       : 4:2:0\nBit depth                                : 8 bits\nScan type                                : Progressive\nBits/(Pixel*Frame)                       : 0.085\nStream size                              : 584 MiB (84%)\nWriting library                          : x264 core 130 r2273 b3065e6\nEncoding settings                        : cabac=1 / ref=3 / deblock=1:-1:-1 / \nEncoded date                             : UTC 2013-06-13 07:07:00\nTagged date                              : UTC 2013-06-13 07:55:43\nColor primaries                          : BT.601 PAL\nTransfer characteristics                 : BT.709\nMatrix coefficients                      : BT.601\n\nAudio\nID                                       : 2\nFormat                                   : AAC\nFormat/Info                              : Advanced Audio Codec\nFormat profile                           : LC\nCodec ID                                 : 40\nDuration                                 : 1h 32mn\nBit rate mode                            : Variable\nBit rate                                 : 160 Kbps\nMaximum bit rate                         : 210 Kbps\nChannel(s)                               : 2 channels\nChannel positions                        : Front: L R\nSampling rate                            : 48.0 KHz\nCompression mode                         : Lossy\nDelay relative to video                  : 80ms\nStream size                              : 106 MiB (15%)\nLanguage                                 : English\nEncoded date                             : UTC 2013-06-13 07:07:00\nTagged date                              : UTC 2013-06-13 07:55:42\n\n\n\n\nIncludes Interview\n\n &lt;a href=&quot;\nhttp://s19.postimg.org/8cfufeaj7/image.jpg&quot; rel=&quot;nofollow&quot; target=&quot;_NEW&quot;&gt;\nhttp://s19.postimg.org/8cfufeaj7/image.jpg&lt;/a&gt;\n &lt;a href=&quot;\nhttp://s19.postimg.org/tktiwtp03/image.jpg&quot; rel=&quot;nofollow&quot; target=&quot;_NEW&quot;&gt;\nhttp://s19.postimg.org/tktiwtp03/image.jpg&lt;/a&gt;\n &lt;a href=&quot;\nhttp://s19.postimg.org/8qh6ezumr/image.jpg&quot; rel=&quot;nofollow&quot; target=&quot;_NEW&quot;&gt;\nhttp://s19.postimg.org/8qh6ezumr/image.jpg&lt;/a&gt;\n\n\nStoryline\n\nKen Park focuses on several teenagers and their tormented home lives. Shawn seems to be the most conventional. Tate is brimming with psychotic rage; Claude is habitually harassed by his brutish father and coddled, rather uncomfortably, by his enormously pregnant mother. Peaches looks after her devoutly religious father, but yearns for freedom. They're all rather tight, or so they claim. But they spend precious little time together and none of them seems to know much about one another's family lives. This bizarre dichotomy underscores their alienation # the result of suburban ennui, a teenager's inherent sense of melodrama, and the disturbing nature of their home environments.\n","torrent":{"xt":"urn:btih:928af9e031f6818ab4a7782e1ef9b99377f81960","amp;dn":"+Ken+Park+%282002%29+Uncut+dvd+rip+92+Minutes","amp;tr":["udp%3A%2F%2Ftracker.openbittorrent.com%3A80","udp%3A%2F%2Fopen.demonii.com%3A1337","udp%3A%2F%2Ftracker.coppersurfer.tk%3A6969","udp%3A%2F%2Fexodus.desync.com%3A6969"],"infoHash":"928af9e031f6818ab4a7782e1ef9b99377f81960","infoHashBuffer":{"type":"Buffer","data":[146,138,249,224,49,246,129,138,180,167,120,46,30,249,185,147,119,248,25,96]},"announce":[],"urlList":[]}}